<?xml version="1.0" encoding="utf-8"?>
<!-- Generator: Adobe Illustrator 23.0.6, SVG Export Plug-In . SVG Version: 6.00 Build 0)  -->
<svg version="1.1" id="Layer_1" xmlns="http://www.w3.org/2000/svg" xmlns:xlink="http://www.w3.org/1999/xlink" x="0px" y="0px"
	 viewBox="0 0 612 270" style="enable-background:new 0 0 612 270;" xml:space="preserve">
<style type="text/css">
	.st0{fill:#131C24;}
	.st1{fill:#FBA308;}
	.st2{fill:#F8C979;}
	.st3{fill:#131C25;}
	.st4{fill:#505C68;}
	.st5{fill:#4F5B67;}
	.st6{fill:#353D45;}
	.st7{fill:#4D5864;}
	.st8{fill:#FEFDFC;}
	.st9{fill:#D8D8D8;}
	.st10{fill:#D7D8D8;}
	.st11{fill:#D7D7D8;}
	.st12{fill:#D9D9D9;}
	.st13{fill:#D6D6D6;}
	.st14{fill:#F8CA79;}
	.st15{fill:#F8CA7A;}
	.st16{fill:#F8CA7B;}
	.st17{fill:#151E26;}
	.st18{fill:#1B232B;}
	.st19{fill:#182029;}
	.st20{fill:#FEFDFB;}
	.st21{fill:#FEFCF8;}
</style>
<g>
	<path class="st0" d="M93.8,256.8c-2.4-1.7-4.7-3.4-7-5.1c-0.5-0.4-0.7-0.8-0.4-1.6c1.6-4.6,3-9.3,4.7-13.9c0.4-1,1.5-1.7,2.3-2.4
		c3.4-2.6,7-5,10.3-7.8c1.5-1.3,2.5-3.2,3.7-4.8c3.3-4.6,6.6-9.2,9.9-13.9c4.1-5.8,8.3-11.7,12.4-17.5c3.1-4.4,6.2-8.7,9.2-13.1
		c0,0,0-0.1,0-0.2c-0.8-0.6-1.7-1.1-2.5-1.8c-0.2-0.2-0.3-0.7-0.3-1c0.1-2,0.3-4,0.5-5.9c0.1-1.2,0.3-2.3,0.5-3.5
		c0.1-0.8,0.2-1.6,0.2-2.4c0-0.2-0.3-0.5-0.5-0.6c-1.9-0.7-2.3-2.5-3-4c-0.6-1.2-1.2-2.5-1.6-3.7c-0.2-0.5-0.2-1.3,0.1-1.7
		c1.8-2.7,3.8-5.2,5.6-7.9c0.5-0.7,0.9-0.7,1.6-0.6c2.2,0.2,4.3,0.4,6.7,0.6c-0.8-1.7-1.5-3.2-2.2-4.8c-0.3-0.7-0.7-1.5-1-2.2
		c-0.1-0.2,0.1-0.5,0.2-0.7c2.9-4,5.8-7.9,8.6-11.9c4.2-5.8,8.3-11.7,12.4-17.5c1.7-2.4,3.3-4.7,4.9-7.1c0.5-0.7,1-0.7,1.7-0.7
		c2,0.2,4,0.3,5.9,0.5c0.8,0.1,1.3-0.2,1.8-0.8c3-4.4,6.1-8.7,9.2-13.1c4.3-6.2,8.7-12.3,13-18.5c4-5.7,8-11.4,11.9-17.1
		c4.2-6,8.3-11.9,12.5-17.9c2.7-3.8,5.3-7.6,8-11.3c2.9-4,6.9-6.4,11.9-7c1.3-0.2,2.7-0.2,4.1-0.2c10.5,0,21,0,31.4,0
		c0.4,0,0.9,0,1.4,0c0,0.5,0,1,0,1.4c0,9.5,0,19,0,28.4c0,1.1-0.3,2-1.1,2.7c-3.2,3.3-6,7-8.5,10.9c-5.1,8.1-8.6,16.8-10.5,26.2
		c-1.2,6-1.7,12.1-1.4,18.2c0.3,6.1,1.4,12.2,3.1,18c2.8,9.2,7.1,17.6,13,25.2c1.5,1.9,3.2,3.7,4.7,5.5c0.2,0.2,0.4,0.6,0.4,0.9
		c0,6.6,0,13.3,0,20c-11.8,0-23.6,0-35.5,0c0-9.5,0-19.1,0-28.7c-9.8,0-19.5,0-29.2,0c0-11.9,0-23.7,0-35.5c9.7,0,19.4,0,29.2,0
		c0-14.2,0-28.3,0-42.6c-0.3,0.4-0.6,0.8-0.8,1.1c-9.4,13.4-18.8,26.7-28.2,40.1c-3.3,4.8-6.7,9.5-10.1,14.3
		c-0.2,0.3-0.3,0.9-0.2,1.2c0.9,2.1,1.8,4.1,2.7,6.1c0.3,0.6,0.3,0.9-0.1,1.5c-7.1,9.9-14.1,19.9-21.2,29.8
		c-1.6,2.2-3.1,4.4-4.6,6.6c-0.4,0.6-0.7,0.7-1.4,0.6c-1.8-0.2-3.6-0.3-5.4-0.5c-0.4,0-0.8,0-1.5,0c0.9,2.1,1.8,4.1,2.7,6.1
		c0.3,0.7,0.3,1.1-0.1,1.7c-1.9,2.7-3.8,5.3-5.8,8c-0.2,0.3-0.7,0.6-1,0.6c-2.3-0.1-4.6-0.2-6.9-0.5c-0.7-0.1-1.4-0.6-1.9-1
		c-0.8-0.6-1.4-0.7-2.4-0.3c-3.2,1.5-6.4,2.9-9.6,4.3c-0.8,0.4-1.4,0.6-2-0.2c-0.4-0.5-1.2-0.7-1.8-1.1c-2.6,3.7-5.2,7.4-7.8,11
		c-8.9,12.6-17.9,25.1-26.8,37.8c-1.1,1.6-1.5,3.7-2.2,5.5c-1.1,3.1-2.1,6.2-3.1,9.2c-0.2,0.5-0.4,0.9-0.8,1.2
		C102.1,250.5,98,253.7,93.8,256.8z M168.7,179.5c0.1-0.1,0.3-0.1,0.4-0.2c2.1-3,4.1-6,6.1-9.1c0.1-0.2,0.1-0.8-0.1-0.9
		c-1.1-0.9-2.2-1.7-3.4-2.5c-0.2-0.1-0.7,0.2-1.1,0.3c-1.9,2.8-3.8,5.7-5.7,8.5c-0.2,0.3-0.3,1.1-0.1,1.3
		C166,177.8,167.4,178.6,168.7,179.5z M139.4,158.4c0.1-0.1,0.3-0.1,0.4-0.2c2.1-3,4.1-6,6.1-9.1c0.1-0.2,0.1-0.8-0.1-0.9
		c-1.1-0.9-2.2-1.7-3.4-2.5c-0.2-0.1-0.7,0.2-1.1,0.3c-1.9,2.8-3.8,5.7-5.7,8.5c-0.2,0.3-0.3,1.1-0.1,1.3
		C136.8,156.7,138.1,157.5,139.4,158.4z M148.6,151.2c-1.9,3-3.9,6-5.9,9c-0.4,0.6-0.4,1.1,0.1,1.6c1.8,1.9,3.8,3.4,6.2,4.2
		c0.3-0.2,0.7-0.3,0.9-0.6c2-2.9,3.9-5.9,5.8-8.9c0.2-0.3,0.3-1,0.1-1.3c-1.6-1.9-3.6-3.5-6-4.4C149.4,150.8,149,151.1,148.6,151.2z
		 M161,174.7c0.3-0.2,0.8-0.2,1-0.5c2-2.9,3.9-5.9,5.8-8.9c0.2-0.4,0.4-1.2,0.1-1.5c-1.6-1.9-3.5-3.4-5.9-4.3
		c-0.3-0.1-0.9,0.2-1.3,0.3c-2,3-4,6.1-6.1,9.1c-0.5,0.7-0.2,1.1,0.2,1.6C156.6,172.3,158.6,173.9,161,174.7z M139.4,162.3
		c-0.1,0-0.3,0-0.4,0c-0.4,3.5-0.7,6.9-1.2,10.4c-0.1,0.7,0.1,1.2,0.7,1.6c0.9,0.6,1.8,1.3,2.7,2c1.5,1.2,3,2.4,4.5,3.5
		c-1.3,0-1.2,1.3-1.9,1.9c1.3,1.6,1.4,1.6,2.5,0c0.2-0.3,0.4-0.7,0.6-1c0.3,0.1,0.7,0.2,1,0.4c0.6,0.4,1.2,0.8,1.8,1.2
		c3.4-1.5,6.7-2.9,10.3-4.5c-0.5-0.4-0.8-0.8-1.2-1c-4.5-3.4-9-6.9-13.6-10.3c-1.8-1.3-3.6-2.6-5.4-3.9
		C139.8,162.6,139.6,162.4,139.4,162.3z M168.2,105.1c-0.6,0.8-1.2,1.6-1.8,2.4c-6.1,8.6-12.2,17.2-18.3,25.8c-0.7,1-0.6,1.8,0,2.6
		c0.9,1.4,3,1.9,4,1.1c1.4-1.9,2.9-3.9,4.3-5.8c5.4-7.6,10.7-15.1,16.1-22.7c0.6-0.8,1.1-1.6,0.5-2.5c-0.6-1.1-1.6-1.9-2.9-2
		C169.2,103.8,168.5,104.1,168.2,105.1z M183.8,160.8c0.1-0.1,0.3-0.2,0.4-0.3c3.4-4.7,6.7-9.5,10-14.2c3.4-4.8,6.8-9.5,10.2-14.3
		c0.8-1.1,0.8-2.1-0.2-3c-0.5-0.5-1.3-0.8-1.9-1.1c-1-0.4-1.9-0.1-2.3,1c-0.2,0.2-0.4,0.3-0.5,0.5c-6.6,9.3-13.2,18.6-19.8,27.9
		c-0.8,1.1-0.5,1.9,0.2,2.8C181,161.6,182.7,161.9,183.8,160.8z M89.1,248.9c-0.1-0.1-0.2-0.2-0.3-0.3c0,0-0.1,0.1-0.1,0.1
		C88.7,248.8,88.9,248.8,89.1,248.9c1.5,1.6,3,3,4.5,4.5c0.6,0.6,1.1,0.6,1.7,0.1c2.7-2.1,5.4-4.2,8.1-6.2c1.2-0.9,2-1.9,2.5-3.4
		c0.8-2.6,1.7-5.1,2.7-7.6c0.5-1.3,0.8-2.7,1.5-3.8c9.7-13.8,19.5-27.5,29.3-41.2c1.1-1.6,1.1-1.8-0.7-2.9c-0.1,0.1-0.2,0.3-0.4,0.5
		c-4.1,5.9-8.3,11.8-12.4,17.6c-4.4,6.3-8.8,12.5-13.2,18.8c-2.2,3.2-4.6,6.2-5.6,10.1c-0.7,2.5-2.1,4.8-4.1,6.6
		c-1.6,1.4-3.5,1.9-5.5,1c-0.3-0.1-0.6-0.2-0.9-0.2c0,0-0.1-0.1-0.1-0.1c0,0,0.1,0.1,0.1,0.1c0.6,1.3,1.4,2.5,1.9,3.8
		c0.7,1.6,0.3,2.1-1.4,1.8c-0.1,0-0.1,0.1-0.3,0.1c0,0.1,0,0.3-0.1,0.4c-0.1,2.1-0.7,2.7-2.6,2C92.3,250.4,90.7,249.6,89.1,248.9z
		 M189.1,120.4c-1.4,1.9-2.7,3.7-4.1,5.6c-5.5,7.8-11,15.6-16.5,23.3c-1,1.3-1.1,2.5-0.1,3.7c0.8,1,1.8,1.9,3,2.5
		c0.9,0.5,2.1,0.8,3.2,0c0.3-0.2,0.8-0.4,1-0.7c3-4.1,5.9-8.3,8.8-12.5c4.1-5.7,8.1-11.5,12.2-17.3c0.3-0.4,0.5-0.9,0.5-1.4
		c0.1-2-2.3-4.6-4.5-4.9C190.7,118.6,189.7,119,189.1,120.4z M162.5,147.1c0.3-0.3,0.8-0.4,1-0.8c3-4.1,5.9-8.3,8.8-12.5
		c4.1-5.8,8.2-11.6,12.3-17.4c0.3-0.4,0.5-0.9,0.5-1.4c0.1-2.1-2.2-4.6-4.5-4.9c-1.8-0.3-2.8,0.2-3.4,1.6c-0.5,0.6-0.9,1.2-1.4,1.8
		c-6.4,9.1-12.8,18.1-19.2,27.2c-0.4,0.6-0.7,1.4-0.7,2.1C156.1,145.7,159.7,148,162.5,147.1z M141.7,184.6c1.3,1.7,1.7,1.6,2.9-0.8
		C142.9,182.3,142.9,182.3,141.7,184.6z M142.5,186.7c-1.8-1.6-1.9-1.6-3,0.8C140.8,189.1,140.8,189.1,142.5,186.7z"/>
	<path class="st1" d="M489.8,50.8c-9.4,5.4-18.6,10.8-27.9,16.1c-7.5-6.8-16.2-10.6-26.3-11c-13.2-0.6-24.5,3.9-33.4,13.7
		c-14.7,16.2-14.6,40.5-0.2,56.5c15.6,17.3,41.8,19.1,60,2.8c9.2,5.3,18.4,10.6,27.8,16c-5.6,6.8-12.2,12.2-19.7,16.6
		c-13.1,7.6-27.3,10.8-42.2,9.7c-16.6-1.2-31.2-7.4-43.6-18.6c-12.6-11.3-20.4-25.3-23.4-41.9c-3-17-0.4-33.3,8-48.5
		c7.7-14,18.8-24.6,33.4-31.2C436.1,15.7,471.1,27.8,489.8,50.8z"/>
	<path class="st2" d="M382.5,39.9c-8.2,7.1-14.5,15.4-19.2,25.1c-3.2-2.6-6.6-4.5-10.1-6c-4-1.7-8.2-2.7-12.5-3
		c-10.9-0.7-20.8,1.9-29.5,8.8c-6.5,5.2-11.1,11.7-13.9,19.5c-1.2,3.3-1.8,6.8-2.1,10.4c-0.6,6.4,0.4,12.5,2.7,18.5
		c1.6,4.4,4,8.3,7,11.9c4.1,4.9,9,8.6,14.8,11.3c3.8,1.8,7.8,3,12,3.4c2.2,0.2,4.4,0.5,6.7,0.4c7.2-0.3,14-2.1,20.1-5.9
		c1.5-0.9,3-2,4.4-3c0.8-0.5,0.8,0.1,1.1,0.5c2,3.3,3.8,6.7,6,9.9c3.3,4.8,7.1,9.1,11.5,12.9c0.2,0.2,0.5,0.4,0.7,0.7
		c0.1,0.1,0.2,0.2,0.3,0.4c-26.2,21.1-65.6,21.3-92.5-1.4c-15.1-12.8-23.9-29.2-25.9-48.8c-2-19.9,3.2-38,15.8-53.7
		c12.5-15.6,28.8-24.6,48.6-27C348.2,22.4,366.2,27.6,382.5,39.9z"/>
	<path class="st3" d="M185.1,216.9c0-13.3,0-26.6,0-39.9c102.9,0,205.8,0,308.8,0c0,13.3,0,26.6,0,39.9
		C391,216.9,288.1,216.9,185.1,216.9z M373,215.7c40,0,79.8,0,119.7,0c0-12.6,0-25.1,0-37.5c-39.9,0-79.8,0-119.7,0
		C373,190.7,373,203.2,373,215.7z M234.3,182c-0.5,5.8-1,11.5-1.5,17.2c-0.1,0-0.1,0-0.2,0c-0.5-5.7-1-11.5-1.5-17.2
		c-2,0-3.9,0-5.9,0c1.1,9.9,2.1,19.8,3.2,29.6c2.6,0,4.9,0,7.4,0c0.4-4.3,0.9-8.6,1.3-12.9c0.1,0,0.1,0,0.2,0
		c0.5,4.3,0.9,8.6,1.4,12.9c2.5,0,4.8,0,7.2,0c1.1-9.9,2.2-19.8,3.3-29.7c-2.1,0-4,0-6,0c-0.5,5.5-0.9,11-1.4,16.5
		c-0.1,0-0.2,0-0.3,0c-0.5-5.5-0.9-11-1.4-16.5C238,182,236.2,182,234.3,182z M265.1,181.9c0,10,0,19.8,0,29.7c2.1,0,4,0,6.1,0
		c0-4.5,0-8.9,0-13.3c1.8,0,2.2,0.3,2.2,1.9c0,3.2,0,6.3,0,9.5c0,0.6,0,1.2,0,1.8c2.1,0,4,0,6,0c0-3.8,0-7.6,0-11.3
		c0-1.7-0.4-3.2-2.3-4.1c1.4-0.7,2.2-1.8,2.4-3.2c0.5-2.6,0.4-5.3-0.3-7.8c-0.6-2-2-3.2-4-3.2C271.8,181.9,268.5,181.9,265.1,181.9z
		 M336.5,196.8c0.1,0,0.1,0,0.2,0c0-2.7,0-5.4,0-8.2c-0.1-3.3-1.7-5.7-4.5-6.3c-1.6-0.4-3.3-0.4-4.8-0.2c-3.1,0.5-4.9,2.5-5.3,5.6
		c-0.2,1.7-0.2,3.4-0.2,5.1c0,4.3-0.1,8.6,0.2,12.9c0.2,3.8,2.9,6.2,6.5,6.3c4.5,0.2,7.3-1.7,7.8-5.8
		C336.8,203.2,336.5,200,336.5,196.8z M319.5,196.9c0.1,0,0.1,0,0.2,0c0-2.8,0.1-5.5,0-8.3c-0.1-3.7-2.1-6-5.6-6.6
		c-0.8-0.1-1.7-0.1-2.5-0.1c-3.7,0.1-6.3,2.3-6.5,5.9c-0.3,5-0.2,10.1-0.2,15.1c0,1,0.1,2,0.2,3c0.5,3.7,3,6.1,6.6,6.2
		c4.5,0.1,7.3-1.7,7.7-5.7C319.8,203.3,319.5,200,319.5,196.9z M223.5,196.5c0.1,0,0.2,0,0.2,0c0-2.6,0-5.1,0-7.7c0-0.2,0-0.3,0-0.5
		c-0.2-3.7-2.1-6-5.6-6.6c-0.9-0.1-1.8-0.1-2.6-0.1c-3.6,0.1-6.2,2.3-6.3,5.9c-0.3,5.1-0.2,10.2-0.2,15.3c0,1,0.1,1.9,0.2,2.9
		c0.5,3.7,3,6,6.5,6.1c4.5,0.1,7.3-1.7,7.8-5.7C223.8,203,223.5,199.7,223.5,196.5z M358.3,200.8c-2.1,0-4,0-5.9,0
		c0,1.6-0.1,3.1,0,4.6c0.3,4.1,2.1,6.1,5.8,6.6c1.1,0.2,2.2,0.1,3.3,0c2.2-0.3,3.9-1.4,4.6-3.5c1.4-3.9,1.6-9.3-2.4-13
		c-1.4-1.3-2.9-2.6-4.1-4c-0.7-0.7-1.2-1.7-1.5-2.6c-0.3-0.8,0.3-1.4,1.1-1.5c0.9-0.1,1.4,0.4,1.4,1.3c0,0.7,0,1.3,0,1.9
		c2.2,0,4.2,0,6.3,0c-0.3-1.6-0.4-3.1-0.8-4.6c-0.6-2-2-3.4-4-3.8c-1.4-0.3-2.9-0.4-4.3-0.3c-2.6,0.3-4.3,1.7-5.1,4.3
		c-1,3.6-0.5,6.8,2.2,9.5c1.4,1.4,2.9,2.9,4.3,4.3c1.5,1.5,1.9,3.3,1.6,5.3c-0.1,0.4-0.7,1.1-1.1,1.1c-0.5,0-1.1-0.5-1.4-0.9
		c-0.2-0.3-0.1-0.8-0.2-1.3C358.3,203.2,358.3,202,358.3,200.8z M198.5,199.9c1.2,0,2.2,0,3.3,0c2.2-0.1,3.9-1.2,4.6-3.3
		c1.2-3.6,1.2-7.3,0-11c-0.7-2.1-2.2-3.4-4.4-3.6c-3.1-0.2-6.2,0-9.3,0c0,9.9,0,19.8,0,29.7c2,0,3.9,0,5.8,0
		C198.5,207.8,198.5,203.9,198.5,199.9z M250.7,181.9c0,10,0,19.8,0,29.7c4.1,0,8.2,0,12.3,0c0-1.9,0-3.8,0-5.7c-2.1,0-4.1,0-6.1,0
		c0-2.4,0-4.6,0-6.9c1.9,0,3.7,0,5.5,0c0-1.8,0-3.6,0-5.5c-1.9,0-3.7,0-5.5,0c0-2,0-3.8,0-5.8c2,0,3.9,0,5.8,0c0-2,0-3.8,0-5.7
		C258.6,181.9,254.7,181.9,250.7,181.9z M294,187.9c0,8.1,0,16,0,24c2.1,0,4,0,6,0c0-8,0-15.9,0-24c1.2,0,2.4,0,3.4,0
		c0-2,0-3.9,0-5.7c-4.4,0-8.7,0-13,0c0,1.9,0,3.8,0,5.7C291.7,187.9,292.8,187.9,294,187.9z M351.3,211.9c0-1.7,0-3.4,0-5
		c-2,0-4,0-6,0c0-8.2,0-16.4,0-24.6c-2.1,0-4,0-6,0c0,9.9,0,19.8,0,29.7C343.3,211.9,347.3,211.9,351.3,211.9z"/>
	<path class="st4" d="M162.5,147.1c-2.8,0.9-6.4-1.4-6.6-4.2c-0.1-0.7,0.3-1.5,0.7-2.1c6.4-9.1,12.8-18.1,19.2-27.2
		c0.4-0.6,0.9-1.2,1.4-1.8c1,0.3,2,0.4,2.8,0.8c1.3,0.6,1.5,1.5,0.9,2.7c-1.2,2.2-2.5,4.4-3.8,6.6c-4,6.8-8,13.6-12,20.4
		C164.1,143.9,163.3,145.5,162.5,147.1z"/>
	<path class="st4" d="M174.5,155.5c-1,0.8-2.2,0.6-3.2,0c-1.1-0.6-2.2-1.5-3-2.5c-1-1.3-0.8-2.4,0.1-3.7c5.5-7.8,11-15.6,16.5-23.3
		c1.3-1.9,2.7-3.7,4.1-5.6c1,0.2,2,0.4,2.8,0.8c1.3,0.6,1.5,1.5,0.9,2.7c-1.2,2.2-2.5,4.4-3.8,6.6c-3.8,6.4-7.5,12.8-11.3,19.3
		C176.6,151.7,175.6,153.6,174.5,155.5z"/>
	<path class="st5" d="M96.5,242.9c0.3,0.1,0.6,0.1,0.9,0.2c2.1,0.9,3.9,0.4,5.5-1c2.1-1.8,3.4-4.1,4.1-6.6c1.1-3.8,3.4-6.9,5.6-10.1
		c4.4-6.3,8.8-12.6,13.2-18.8c4.1-5.9,8.3-11.8,12.4-17.6c0.1-0.2,0.2-0.3,0.4-0.5c1.8,1.1,1.8,1.3,0.7,2.9
		c-9.8,13.7-19.6,27.4-29.3,41.2c-0.8,1.1-1,2.5-1.5,3.8c-0.9,2.5-1.9,5-2.7,7.6c-0.4,1.5-1.3,2.5-2.5,3.4c-2.7,2-5.4,4.1-8.1,6.2
		c-0.6,0.5-1.1,0.6-1.7-0.1c-1.5-1.5-3.1-3-4.6-4.5c0,0,0.1-0.1,0.1-0.1c1.7,0.7,3.3,1.6,5,2.2c2,0.6,2.6,0.1,2.6-2
		c0-0.2,0-0.3,0.1-0.4c0.1-0.1,0.2-0.1,0.3-0.1c1.6,0.3,2-0.1,1.4-1.8C97.9,245.4,97.1,244.1,96.5,242.9L96.5,242.9z"/>
	<path class="st4" d="M183.8,160.8c-1.1,1.1-2.9,0.8-4.1-0.7c-0.7-0.9-0.9-1.7-0.2-2.8c6.6-9.3,13.2-18.6,19.8-27.9
		c0.1-0.2,0.3-0.3,0.5-0.5c2.2,0.3,2.8,1.5,1.6,3.4c-1.1,1.7-2.2,3.5-3.3,5.3c-4.3,6.8-8.6,13.6-12.9,20.4
		C184.8,158.8,184.3,159.8,183.8,160.8z"/>
	<path class="st4" d="M152.1,137c-1,0.8-3,0.3-4-1.1c-0.6-0.9-0.7-1.7,0-2.6c6.1-8.6,12.2-17.2,18.3-25.8c0.6-0.8,1.2-1.6,1.8-2.4
		c2.1,0.2,2.8,1.5,1.7,3.2c-1.1,1.8-2.2,3.6-3.4,5.4c-4.3,6.8-8.6,13.6-12.9,20.4C153.1,135,152.6,136,152.1,137z"/>
	<path class="st4" d="M145.7,179.8c-1.5-1.2-3-2.4-4.5-3.5c-0.9-0.7-1.8-1.4-2.7-2c-0.6-0.4-0.8-0.9-0.7-1.6
		c0.4-3.5,0.8-6.9,1.2-10.4c0.1,0,0.3,0,0.4,0c0.2,0.2,0.3,0.3,0.5,0.5c0.2,0.3,0.4,0.7,0.6,1c1,1,2.1,1.9,3,2.9
		c2.9,2.9,5.8,5.9,8.8,8.8c0.7,0.7,0.7,1.2,0.2,2c-1,1.6-1.9,3.4-2.9,5c-0.6-0.4-1.2-0.8-1.8-1.2c-0.3-0.2-0.7-0.3-1-0.4l0,0
		c-0.3-0.2-0.6-0.5-1-0.7l0,0C145.8,179.9,145.8,179.8,145.7,179.8L145.7,179.8z"/>
	<path class="st6" d="M162.5,147.1c0.8-1.6,1.6-3.2,2.5-4.7c4-6.8,8-13.6,12-20.4c1.3-2.2,2.6-4.4,3.8-6.6c0.7-1.2,0.4-2.1-0.9-2.7
		c-0.9-0.4-1.9-0.5-2.8-0.8c0.6-1.4,1.7-1.9,3.4-1.6c2.3,0.3,4.6,2.9,4.5,4.9c0,0.5-0.2,1-0.5,1.4c-4.1,5.8-8.2,11.6-12.3,17.4
		c-2.9,4.2-5.9,8.3-8.8,12.5C163.2,146.7,162.8,146.8,162.5,147.1z"/>
	<path class="st6" d="M174.5,155.5c1.1-1.9,2.1-3.8,3.2-5.7c3.8-6.4,7.5-12.8,11.3-19.3c1.3-2.2,2.6-4.4,3.8-6.6
		c0.7-1.2,0.4-2.1-0.9-2.7c-0.9-0.4-1.9-0.5-2.8-0.8c0.6-1.4,1.6-1.9,3.4-1.6c2.2,0.3,4.6,2.9,4.5,4.9c0,0.5-0.2,1-0.5,1.4
		c-4,5.8-8.1,11.5-12.2,17.3c-2.9,4.2-5.9,8.3-8.8,12.5C175.3,155.2,174.9,155.3,174.5,155.5z"/>
	<path class="st4" d="M161,174.7c-2.5-0.8-4.4-2.4-6.2-4.2c-0.4-0.4-0.6-0.9-0.2-1.6c2.1-3,4.1-6.1,6.1-9.1c1.1,0.5,2.1,1,3.2,1.7
		c0.9,0.5,1.1,1.3,0.7,2.4C163.4,167.4,162.2,171.1,161,174.7z"/>
	<path class="st4" d="M149,166c-2.5-0.8-4.5-2.4-6.2-4.2c-0.5-0.5-0.5-1-0.1-1.6c2-3,3.9-6,5.9-9c1.1,0.6,2.3,1.2,3.4,1.9
		c0.7,0.5,0.8,1.2,0.6,2c-0.5,1.5-1,2.9-1.5,4.4C150.4,161.6,149.7,163.8,149,166z"/>
	<path class="st6" d="M149.7,182.4c1-1.7,1.9-3.4,2.9-5c0.5-0.8,0.5-1.3-0.2-2c-3-2.9-5.9-5.8-8.8-8.8c-1-1-2-1.9-3-2.9
		c-0.3-0.3-0.4-0.6-0.6-1c1.8,1.3,3.6,2.5,5.4,3.9c4.5,3.4,9,6.9,13.6,10.3c0.3,0.3,0.6,0.6,1.2,1
		C156.5,179.4,153.1,180.9,149.7,182.4z"/>
	<path class="st6" d="M152.1,137c0.5-1,0.9-2,1.5-2.9c4.3-6.8,8.6-13.6,12.9-20.4c1.1-1.8,2.2-3.6,3.4-5.4c1.1-1.8,0.5-3-1.7-3.2
		c0.3-1,1-1.3,1.9-1.2c1.4,0.1,2.3,0.9,2.9,2c0.6,0.9,0,1.7-0.5,2.5c-5.4,7.6-10.7,15.1-16.1,22.7C155,133.2,153.6,135.1,152.1,137z
		"/>
	<path class="st6" d="M183.8,160.8c0.5-1,0.9-2,1.5-2.9c4.3-6.8,8.6-13.6,12.9-20.4c1.1-1.8,2.2-3.5,3.3-5.3
		c1.2-1.8,0.6-3.1-1.6-3.4c0.5-1.1,1.3-1.4,2.3-1c0.7,0.3,1.4,0.6,1.9,1.1c1,0.9,1,1.9,0.2,3c-3.4,4.8-6.8,9.5-10.2,14.3
		c-3.4,4.7-6.7,9.5-10,14.2C184.1,160.6,183.9,160.7,183.8,160.8z"/>
	<path class="st4" d="M139.4,158.4c-1.3-0.9-2.7-1.7-3.9-2.6c-0.2-0.1-0.1-1,0.1-1.3c1.9-2.9,3.8-5.7,5.7-8.5c0.5,0.2,1,0.3,1.4,0.6
		c1,0.5,1.4,1.2,0.8,2.4c-0.8,1.5-1.5,3.2-2.2,4.8C140.7,155.2,140.1,156.8,139.4,158.4z"/>
	<path class="st4" d="M168.7,179.5c-1.3-0.9-2.7-1.7-3.9-2.6c-0.2-0.1-0.1-1,0.1-1.3c1.9-2.9,3.8-5.7,5.7-8.5c0.5,0.2,1,0.3,1.4,0.6
		c1,0.5,1.4,1.2,0.8,2.4c-0.8,1.5-1.5,3.2-2.2,4.8C170,176.3,169.3,177.9,168.7,179.5z"/>
	<path class="st6" d="M161,174.7c1.2-3.6,2.4-7.3,3.6-10.9c0.4-1.1,0.2-1.8-0.7-2.4c-1-0.6-2.1-1.1-3.2-1.7c0.4-0.1,0.9-0.4,1.3-0.3
		c2.4,0.9,4.3,2.4,5.9,4.3c0.2,0.3,0.1,1.1-0.1,1.5c-1.9,3-3.9,5.9-5.8,8.9C161.8,174.5,161.3,174.5,161,174.7z"/>
	<path class="st6" d="M149,166c0.7-2.2,1.3-4.4,2-6.6c0.5-1.5,1-2.9,1.5-4.4c0.3-0.8,0.2-1.5-0.6-2c-1.1-0.7-2.3-1.2-3.4-1.9
		c0.4-0.1,0.9-0.4,1.2-0.3c2.4,0.8,4.4,2.4,6,4.4c0.2,0.2,0.1,1-0.1,1.3c-1.9,3-3.8,6-5.8,8.9C149.8,165.7,149.3,165.8,149,166z"/>
	<path class="st6" d="M168.7,179.5c0.6-1.6,1.3-3.2,1.9-4.7c0.7-1.6,1.3-3.2,2.2-4.8c0.6-1.2,0.3-1.9-0.8-2.4
		c-0.4-0.2-0.9-0.4-1.4-0.6c0.4-0.1,0.9-0.4,1.1-0.3c1.2,0.8,2.3,1.6,3.4,2.5c0.2,0.1,0.2,0.7,0.1,0.9c-2,3-4.1,6.1-6.1,9.1
		C169,179.4,168.8,179.4,168.7,179.5z"/>
	<path class="st6" d="M139.4,158.4c0.6-1.6,1.3-3.2,1.9-4.7c0.7-1.6,1.3-3.2,2.2-4.8c0.6-1.2,0.3-1.9-0.8-2.4
		c-0.4-0.2-0.9-0.4-1.4-0.6c0.4-0.1,0.9-0.4,1.1-0.3c1.2,0.8,2.3,1.6,3.4,2.5c0.2,0.1,0.2,0.7,0.1,0.9c-2,3-4.1,6.1-6.1,9.1
		C139.7,158.3,139.5,158.3,139.4,158.4z"/>
	<path class="st7" d="M146.9,180.7c-0.2,0.3-0.4,0.7-0.6,1c-1.1,1.6-1.2,1.5-2.5,0c0.7-0.6,0.6-1.9,1.9-1.9c0,0,0,0,0,0
		c0.1,0.1,0.2,0.2,0.2,0.2c0,0,0,0,0,0C146.2,180.2,146.6,180.5,146.9,180.7C146.9,180.7,146.9,180.7,146.9,180.7z"/>
	<path class="st7" d="M141.7,184.6c1.2-2.3,1.2-2.3,2.9-0.8C143.4,186.1,142.9,186.3,141.7,184.6z"/>
	<path class="st7" d="M142.5,186.7c-1.7,2.3-1.7,2.3-3,0.8C140.6,185.1,140.7,185.1,142.5,186.7z"/>
	<path class="st5" d="M89,248.9c-0.1-0.1-0.3-0.2-0.4-0.2c0,0,0.1-0.1,0.1-0.1C88.8,248.6,88.9,248.7,89,248.9
		C89.1,248.9,89,248.9,89,248.9z"/>
	<path class="st6" d="M139.4,162.3c-0.1,0-0.3,0-0.4,0C139.1,162.3,139.3,162.3,139.4,162.3z"/>
	<path class="st5" d="M96.5,242.9c0,0-0.1-0.1-0.1-0.1C96.4,242.8,96.5,242.8,96.5,242.9C96.5,242.9,96.5,242.9,96.5,242.9z"/>
	<path class="st8" d="M373,215.7c0-12.5,0-25,0-37.5c39.9,0,79.7,0,119.7,0c0,12.5,0,25,0,37.5C452.8,215.7,413,215.7,373,215.7z
		 M460.6,182.4c0,4.6,0,9.1,0,13.6c-0.3-0.4-0.4-0.9-0.5-1.3c-0.7-3.8-1.4-7.6-2.2-11.4c-0.1-0.3-0.4-0.8-0.6-0.9
		c-1.9-0.1-3.7,0-5.5,0c0,10,0,19.8,0,29.6c1.9,0,3.8,0,5.7,0c0-4.6,0-9.1,0-13.5c0.1,0,0.1,0,0.2,0c0.9,4.5,1.9,9.1,2.8,13.5
		c2.1,0,4,0,5.8,0c0-9.9,0-19.7,0-29.6C464.3,182.4,462.5,182.4,460.6,182.4z M392.9,212c2.1,0,4,0,6,0c0-4.5,0-8.9,0-13.2
		c1.7-0.1,2.1,0.3,2.1,1.8c0,3.4,0,6.7,0,10.1c0,0.5,0,0.9,0,1.4c2.1,0,4,0,6,0c0-3.8,0-7.5,0-11.2c0-1.7-0.4-3.3-2.5-4.2
		c1.8-0.7,2.5-2.1,2.6-3.6c0.2-1.9,0.2-3.9-0.1-5.7c-0.6-3.8-2-4.9-5.9-4.9c-2.4,0-4.7,0-7.1,0c-0.4,0-0.8,0-1.3,0.1
		C392.9,192.4,392.9,202.2,392.9,212z M426.5,182.6c0,9.8,0,19.7,0,29.6c3,0,5.9,0.1,8.7,0c2.4-0.1,4.3-1.2,5-3.6
		c0.4-1.4,0.8-3,0.8-4.4c0.1-4.6,0-9.2,0-13.8c0-1-0.1-2-0.2-3c-0.4-2.7-1.8-4.4-4.5-4.7C433.1,182.4,429.9,182.6,426.5,182.6z
		 M483.3,192.5c0-0.9,0.1-1.7,0-2.5c-0.2-2.1-0.4-4.2-2-5.8c-2.4-2.5-5.5-2.4-8.5-1.5c-2.4,0.7-4.1,3.2-4.2,6.1
		c-0.1,5.6-0.1,11.1,0,16.7c0,1.3,0.5,2.7,1,3.9c0.6,1.5,1.9,2.4,3.5,2.8c2.7,0.6,4.9,0,6.6-2.3c1.4,2.5,1.4,2.5,3.3,2.2
		c0-5.7,0-11.4,0-17.1c-2.4,0-4.7,0-7.1,0c0,1.7,0,3.3,0,4.9c0.5,0.1,0.9,0.2,1.4,0.2c0,0.9,0,1.7,0,2.5c0,1.1,0,2.2-0.2,3.2
		c-0.1,0.5-0.8,1.1-1.3,1.1c-0.5,0-1-0.6-1.4-1c-0.2-0.2-0.2-0.7-0.2-1c0-5,0-10.1,0-15.1c0-1.2,0.7-2,1.7-1.9c1.2,0,1.3,1,1.4,1.9
		c0.1,0.9,0,1.9,0,2.9C479.6,192.5,481.4,192.5,483.3,192.5z M418.5,207.3c0.2,1.7,0.4,3.2,0.5,4.7c2,0,3.7,0,5.5,0c0-0.5,0-1,0-1.4
		c-0.4-3.7-0.8-7.4-1.1-11.2c-0.5-5.4-1-10.8-1.5-16.2c0-0.3-0.4-0.8-0.7-0.8c-3.1-0.1-6.3,0-9.5,0c-1,10-1.9,19.8-2.9,29.8
		c1.6,0,3.1-0.1,4.6,0c1.1,0.1,1.4-0.4,1.4-1.4c0-1.2,0.1-2.4,0.2-3.7C416.2,207.2,417.3,207.3,418.5,207.3z M381.7,188.1
		c0,8.1,0,16,0,23.9c2.1,0,4,0,6,0c0-8,0-15.9,0-23.9c1.2,0,2.4,0,3.5,0c0-2,0-3.8,0-5.6c-4.4,0-8.7,0-13,0c0,1.9,0,3.7,0,5.6
		C379.3,188.1,380.3,188.1,381.7,188.1z M443.4,182.4c0,10,0,19.8,0,29.6c1.9,0,3.7,0,5.6,0c0-9.9,0-19.8,0-29.6
		C447.1,182.4,445.3,182.4,443.4,182.4z"/>
	<path class="st9" d="M234.3,182c1.9,0,3.7,0,5.6,0c0.5,5.5,0.9,11,1.4,16.5c0.1,0,0.2,0,0.3,0c0.5-5.5,0.9-11,1.4-16.5
		c2,0,3.9,0,6,0c-1.1,9.9-2.2,19.8-3.3,29.7c-2.4,0-4.8,0-7.2,0c-0.5-4.3-0.9-8.6-1.4-12.9c-0.1,0-0.1,0-0.2,0
		c-0.4,4.3-0.9,8.6-1.3,12.9c-2.4,0-4.8,0-7.4,0c-1.1-9.8-2.1-19.7-3.2-29.6c2,0,3.9,0,5.9,0c0.5,5.7,1,11.5,1.5,17.2
		c0.1,0,0.1,0,0.2,0C233.2,193.5,233.7,187.8,234.3,182z"/>
	<path class="st10" d="M265.1,181.9c3.4,0,6.7-0.1,10,0c2,0,3.4,1.2,4,3.2c0.7,2.6,0.8,5.2,0.3,7.8c-0.2,1.4-1,2.5-2.4,3.2
		c1.8,0.8,2.3,2.3,2.3,4.1c0,3.8,0,7.5,0,11.3c-2,0-3.9,0-6,0c0-0.6,0-1.2,0-1.8c0-3.2,0-6.3,0-9.5c0-1.6-0.4-2-2.2-1.9
		c0,4.4,0,8.8,0,13.3c-2,0-4,0-6.1,0C265.1,201.8,265.1,191.9,265.1,181.9z M271.2,192.9c2.1,0.1,2.5-0.2,2.6-2.2c0-0.4,0-0.7,0-1.1
		c-0.1-2.1-0.5-2.4-2.6-2C271.2,189.3,271.2,191.1,271.2,192.9z"/>
	<path class="st9" d="M336.5,196.8c0,3.2,0.3,6.4-0.1,9.6c-0.5,4.1-3.3,5.9-7.8,5.8c-3.5-0.1-6.2-2.5-6.5-6.3
		c-0.3-4.3-0.2-8.6-0.2-12.9c0-1.7,0-3.4,0.2-5.1c0.3-3.1,2.1-5.2,5.3-5.6c1.6-0.2,3.3-0.2,4.8,0.2c2.8,0.7,4.4,3.1,4.5,6.3
		c0.1,2.7,0,5.4,0,8.2C336.6,196.8,336.6,196.8,336.5,196.8z M330.7,197c0-1.7,0-3.4,0-5c0-1.2,0-2.3-0.2-3.5c-0.1-0.4-0.7-1-1-1
		c-0.5,0-1.1,0.5-1.3,0.9c-0.3,0.5-0.2,1.2-0.2,1.8c0,4.5,0,8.9,0,13.4c0,0.6,0,1.3,0.2,1.9c0.2,0.5,0.8,1,1.2,1
		c0.4,0,0.9-0.6,1.2-1c0.2-0.5,0.2-1.1,0.2-1.6C330.7,201.6,330.7,199.3,330.7,197z"/>
	<path class="st9" d="M319.5,196.9c0,3.2,0.3,6.4-0.1,9.6c-0.5,4-3.3,5.9-7.7,5.7c-3.6-0.1-6.1-2.5-6.6-6.2c-0.1-1-0.2-2-0.2-3
		c0-5-0.1-10.1,0.2-15.1c0.2-3.6,2.8-5.8,6.5-5.9c0.8,0,1.7,0,2.5,0.1c3.5,0.6,5.5,2.9,5.6,6.6c0.1,2.8,0,5.5,0,8.3
		C319.6,196.9,319.5,196.9,319.5,196.9z M310.8,196.9C310.8,196.9,310.9,196.9,310.8,196.9c0,2.5,0,5,0,7.4c0,1,0,2.2,1.4,2.2
		c1.5,0,1.3-1.3,1.3-2.3c0.1-2,0-4,0-6c0-2.9,0-5.8,0-8.7c0-0.9,0.1-2-1.2-2.1c-0.9-0.1-1.5,0.7-1.6,2.1c0,0.3,0,0.6,0,0.8
		C310.8,192.6,310.8,194.8,310.8,196.9z"/>
	<path class="st9" d="M223.5,196.5c0,3.2,0.3,6.5-0.1,9.7c-0.5,4-3.3,5.9-7.8,5.7c-3.5-0.1-6-2.5-6.5-6.1c-0.1-0.9-0.2-1.9-0.2-2.9
		c0-5.1-0.1-10.2,0.2-15.3c0.2-3.6,2.8-5.8,6.3-5.9c0.9,0,1.8-0.1,2.6,0.1c3.5,0.6,5.4,2.9,5.6,6.6c0,0.2,0,0.3,0,0.5
		c0,2.6,0,5.1,0,7.7C223.6,196.5,223.5,196.5,223.5,196.5z M217.7,196.7c0-2.3,0-4.6,0-7c0-0.5,0-1-0.2-1.4c-0.3-0.4-0.8-1-1.2-1
		c-0.4,0-1,0.5-1.3,1c-0.2,0.4-0.2,1-0.2,1.5c0,4.6,0,9.2,0,13.8c0,0.6,0,1.3,0.3,1.9c0.2,0.4,0.8,0.8,1.2,0.8c0.3,0,0.9-0.5,1-0.9
		c0.2-0.6,0.2-1.3,0.2-1.9C217.7,201.2,217.7,199,217.7,196.7z"/>
	<path class="st9" d="M358.3,200.8c0,1.2,0,2.4,0,3.5c0,0.4-0.1,1,0.2,1.3c0.4,0.4,0.9,0.9,1.4,0.9c0.4,0,1-0.7,1.1-1.1
		c0.3-2-0.1-3.8-1.6-5.3c-1.5-1.4-2.9-2.9-4.3-4.3c-2.7-2.7-3.3-5.9-2.2-9.5c0.7-2.5,2.5-4,5.1-4.3c1.4-0.1,2.9,0,4.3,0.3
		c2.1,0.4,3.5,1.8,4,3.8c0.4,1.4,0.6,3,0.8,4.6c-2.2,0-4.2,0-6.3,0c0-0.6,0-1.3,0-1.9c-0.1-0.9-0.5-1.4-1.4-1.3
		c-0.9,0.1-1.4,0.7-1.1,1.5c0.3,0.9,0.8,1.9,1.5,2.6c1.3,1.4,2.7,2.7,4.1,4c4,3.6,3.8,9,2.4,13c-0.8,2.1-2.4,3.2-4.6,3.5
		c-1.1,0.1-2.3,0.1-3.3,0c-3.7-0.5-5.5-2.6-5.8-6.6c-0.1-1.5,0-3,0-4.6C354.3,200.8,356.2,200.8,358.3,200.8z"/>
	<path class="st9" d="M198.5,199.9c0,4,0,7.9,0,11.7c-2,0-3.9,0-5.8,0c0-9.9,0-19.7,0-29.7c3.1,0,6.3-0.1,9.3,0
		c2.2,0.1,3.7,1.5,4.4,3.6c1.2,3.6,1.2,7.3,0,11c-0.7,2.2-2.4,3.2-4.6,3.3C200.7,200,199.7,199.9,198.5,199.9z M198.6,194.6
		c2-0.1,2.5-0.6,2.6-2.4c0-0.9,0-1.8,0-2.6c-0.1-1.7-0.8-2.2-2.6-2C198.6,189.9,198.6,192.2,198.6,194.6z"/>
	<path class="st11" d="M250.7,181.9c4,0,7.9,0,11.9,0c0,1.9,0,3.7,0,5.7c-1.9,0-3.8,0-5.8,0c0,2,0,3.8,0,5.8c1.9,0,3.7,0,5.5,0
		c0,1.9,0,3.7,0,5.5c-1.9,0-3.6,0-5.5,0c0,2.3,0,4.6,0,6.9c2,0,4,0,6.1,0c0,2,0,3.8,0,5.7c-4.1,0-8.1,0-12.3,0
		C250.7,201.8,250.7,191.9,250.7,181.9z"/>
	<path class="st12" d="M294,187.9c-1.3,0-2.4,0-3.5,0c0-1.9,0-3.8,0-5.7c4.3,0,8.6,0,13,0c0,1.8,0,3.7,0,5.7c-1.1,0-2.2,0-3.4,0
		c0,8.1,0,16,0,24c-2.1,0-4,0-6,0C294,203.9,294,196,294,187.9z"/>
	<path class="st13" d="M351.3,211.9c-4,0-8,0-12.1,0c0-9.9,0-19.7,0-29.7c2,0,3.9,0,6,0c0,8.2,0,16.4,0,24.6c2.1,0,4,0,6,0
		C351.3,208.5,351.3,210.2,351.3,211.9z"/>
	<path class="st0" d="M146.9,180.7c-0.3-0.2-0.6-0.5-1-0.7C146.2,180.2,146.6,180.5,146.9,180.7z"/>
	<path class="st0" d="M145.9,180c-0.1-0.1-0.2-0.2-0.2-0.2C145.8,179.8,145.8,179.9,145.9,180z"/>
	<path class="st14" d="M460.6,182.4c2,0,3.8,0,5.6,0c0,9.9,0,19.7,0,29.6c-1.9,0-3.7,0-5.8,0c-0.9-4.5-1.8-9-2.8-13.5
		c-0.1,0-0.1,0-0.2,0c0,4.5,0,9,0,13.5c-1.9,0-3.8,0-5.7,0c0-9.8,0-19.6,0-29.6c1.8,0,3.7,0,5.5,0c0.2,0,0.5,0.5,0.6,0.9
		c0.8,3.8,1.5,7.6,2.2,11.4c0.1,0.5,0.2,0.9,0.5,1.3C460.6,191.5,460.6,187,460.6,182.4z"/>
	<path class="st15" d="M392.9,212c0-9.9,0-19.7,0-29.6c0.4,0,0.9-0.1,1.3-0.1c2.4,0,4.7,0,7.1,0c3.9,0,5.3,1.1,5.9,4.9
		c0.3,1.9,0.2,3.8,0.1,5.7c-0.1,1.5-0.8,2.9-2.6,3.6c2,0.8,2.5,2.4,2.5,4.2c0,3.7,0,7.4,0,11.2c-2,0-3.9,0-6,0c0-0.5,0-0.9,0-1.4
		c0-3.4,0-6.7,0-10.1c0-1.5-0.5-1.8-2.1-1.8c0,4.4,0,8.7,0,13.2C396.9,212,394.9,212,392.9,212z M399,188c0,1.8,0,3.6,0,5.4
		c2.1,0.2,2.5-0.2,2.5-2.2c0-0.3,0-0.6,0-1C401.5,188.1,401.2,187.8,399,188z"/>
	<path class="st15" d="M426.5,182.6c3.3,0,6.6-0.2,9.8,0.1c2.7,0.2,4.1,2,4.5,4.7c0.2,1,0.2,2,0.2,3c0,4.6,0.1,9.2,0,13.8
		c0,1.5-0.3,3-0.8,4.4c-0.7,2.4-2.7,3.5-5,3.6c-2.9,0.1-5.7,0-8.7,0C426.5,202.2,426.5,192.4,426.5,182.6z M432.5,206.7
		c1.8,0.4,2.6-0.1,2.6-1.6c0-5.1,0-10.2,0-15.3c0-1.8-0.7-2.3-2.6-1.9C432.5,194.1,432.5,200.4,432.5,206.7z"/>
	<path class="st2" d="M483.3,192.5c-2,0-3.8,0-5.8,0c0-1,0.1-2,0-2.9c-0.1-0.9-0.1-1.8-1.4-1.9c-1,0-1.7,0.7-1.7,1.9
		c0,5,0,10.1,0,15.1c0,0.4,0,0.8,0.2,1c0.4,0.4,0.9,1,1.4,1c0.5,0,1.2-0.6,1.3-1.1c0.2-1,0.2-2.1,0.2-3.2c0-0.8,0-1.6,0-2.5
		c-0.5-0.1-0.9-0.2-1.4-0.2c0-1.6,0-3.2,0-4.9c2.4,0,4.7,0,7.1,0c0,5.7,0,11.4,0,17.1c-2,0.4-2,0.4-3.3-2.2
		c-1.7,2.3-3.9,2.9-6.6,2.3c-1.6-0.4-2.9-1.3-3.5-2.8c-0.5-1.2-1-2.6-1-3.9c-0.1-5.6-0.1-11.1,0-16.7c0-3,1.7-5.4,4.2-6.1
		c3-0.9,6-1,8.5,1.5c1.6,1.6,1.7,3.7,2,5.8C483.4,190.7,483.3,191.5,483.3,192.5z"/>
	<path class="st15" d="M418.5,207.3c-1.2-0.1-2.3-0.1-3.5-0.2c-0.1,1.3-0.2,2.5-0.2,3.7c0,1-0.3,1.5-1.4,1.4c-1.5-0.1-2.9,0-4.6,0
		c1-10,1.9-19.8,2.9-29.8c3.2,0,6.4,0,9.5,0c0.2,0,0.7,0.5,0.7,0.8c0.5,5.4,1,10.8,1.5,16.2c0.4,3.7,0.8,7.4,1.1,11.2
		c0,0.4,0,0.9,0,1.4c-1.8,0-3.6,0-5.5,0C418.9,210.5,418.7,209,418.5,207.3z M416.8,187.8c-0.1,0-0.2,0-0.3,0
		c-0.4,4.9-0.7,9.8-1.1,14.7c1,0,1.8,0,2.7,0C417.7,197.5,417.2,192.7,416.8,187.8z"/>
	<path class="st15" d="M381.7,188.1c-1.3,0-2.4,0-3.5,0c0-1.9,0-3.7,0-5.6c4.3,0,8.6,0,13,0c0,1.8,0,3.6,0,5.6c-1.1,0-2.2,0-3.5,0
		c0,8.1,0,16,0,23.9c-2,0-3.9,0-6,0C381.7,204.2,381.7,196.2,381.7,188.1z"/>
	<path class="st16" d="M443.4,182.4c1.9,0,3.7,0,5.6,0c0,9.9,0,19.7,0,29.6c-1.8,0-3.7,0-5.6,0C443.4,202.2,443.4,192.4,443.4,182.4
		z"/>
	<path class="st17" d="M271.2,192.9c0-1.8,0-3.6,0-5.3c2.1-0.4,2.5,0,2.6,2c0,0.4,0,0.7,0,1.1C273.7,192.7,273.3,193,271.2,192.9z"
		/>
	<path class="st18" d="M330.7,197c0,2.3,0,4.6,0,6.8c0,0.6,0,1.2-0.2,1.6c-0.2,0.5-0.8,1-1.2,1c-0.4,0-1-0.6-1.2-1
		c-0.2-0.6-0.2-1.3-0.2-1.9c0-4.5,0-8.9,0-13.4c0-0.6,0-1.3,0.2-1.8c0.2-0.4,0.9-0.9,1.3-0.9c0.3,0,1,0.6,1,1
		c0.2,1.1,0.2,2.3,0.2,3.5C330.7,193.7,330.7,195.4,330.7,197z"/>
	<path class="st18" d="M310.8,196.9c0-2.2,0-4.3,0-6.5c0-0.3,0-0.6,0-0.8c0.1-1.5,0.6-2.2,1.6-2.1c1.3,0.1,1.2,1.2,1.2,2.1
		c0,2.9,0,5.8,0,8.7c0,2,0.1,4,0,6c0,0.9,0.1,2.3-1.3,2.3c-1.4,0-1.4-1.3-1.4-2.2C310.8,201.9,310.9,199.4,310.8,196.9
		C310.9,196.9,310.8,196.9,310.8,196.9z"/>
	<path class="st18" d="M217.7,196.7c0,2.3,0,4.6,0,6.8c0,0.6,0,1.3-0.2,1.9c-0.2,0.4-0.7,0.9-1,0.9c-0.4,0-1-0.4-1.2-0.8
		c-0.3-0.5-0.3-1.2-0.3-1.9c0-4.6,0-9.2,0-13.8c0-0.5,0-1.1,0.2-1.5c0.3-0.4,0.8-1,1.3-1c0.4,0,0.9,0.6,1.2,1
		c0.2,0.4,0.2,0.9,0.2,1.4C217.7,192.1,217.7,194.4,217.7,196.7z"/>
	<path class="st19" d="M198.6,194.6c0-2.4,0-4.7,0-7.1c1.8-0.2,2.4,0.3,2.6,2c0.1,0.9,0.1,1.7,0,2.6
		C201.1,194,200.5,194.5,198.6,194.6z"/>
	<path class="st8" d="M399,188c2.2-0.2,2.5,0.1,2.5,2.2c0,0.3,0,0.6,0,1c0,2-0.5,2.4-2.5,2.2C399,191.6,399,189.9,399,188z"/>
	<path class="st20" d="M432.5,206.7c0-6.3,0-12.6,0-18.9c1.9-0.4,2.6,0.1,2.6,1.9c0,5.1,0,10.2,0,15.3
		C435.1,206.6,434.3,207.1,432.5,206.7z"/>
	<path class="st21" d="M416.8,187.8c0.4,4.9,0.9,9.7,1.3,14.7c-0.9,0-1.7,0-2.7,0c0.4-4.9,0.7-9.8,1.1-14.7
		C416.6,187.8,416.7,187.8,416.8,187.8z"/>
</g>
</svg>
